<svg xmlns="http://www.w3.org/2000/svg" width="1254" height="836" viewBox="0 0 1254 836">
<g>
<path d="M 408.00 378.97 C404.98,380.08 402.25,381.00 401.95,381.00 C400.69,381.00 399.00,378.46 398.98,376.55 C398.96,373.06 396.36,365.46 395.73,367.04 C395.42,367.84 395.12,367.15 395.08,365.49 C394.95,360.59 393.21,355.83 390.96,354.26 C389.81,353.45 389.10,352.19 389.38,351.46 C389.73,350.55 388.85,349.99 386.70,349.72 C383.99,349.38 384.15,349.30 387.75,349.16 C390.09,349.07 392.00,348.66 391.99,348.25 C391.98,346.76 385.91,324.28 382.81,314.25 L 379.64 304.00 L 376.29 304.00 C370.50,304.00 366.61,306.47 356.08,316.82 C350.46,322.35 346.45,326.12 347.18,325.20 C347.91,324.28 347.03,324.73 345.22,326.22 C341.82,329.02 338.66,329.04 339.73,326.25 C340.17,325.12 339.94,324.88 338.92,325.40 C338.14,325.81 339.06,324.76 340.96,323.07 C342.87,321.38 344.02,320.00 343.52,320.00 C343.02,320.00 344.13,318.42 346.00,316.50 C347.87,314.58 349.93,313.00 350.59,313.00 C351.25,313.00 352.05,312.33 352.36,311.50 C353.11,309.56 352.74,309.60 347.71,312.04 C345.39,313.17 344.29,313.46 345.25,312.68 C347.56,310.83 347.47,310.16 344.51,307.42 C343.12,306.14 342.27,304.47 342.57,303.67 C343.85,300.35 363.74,295.26 379.00,294.35 C397.66,293.24 413.83,296.55 431.50,305.11 C448.73,313.46 465.89,328.30 472.07,340.21 C474.55,344.99 474.52,345.26 471.25,347.20 C469.74,348.09 465.35,351.18 461.50,354.05 C457.65,356.92 455.40,358.23 456.50,356.97 C458.08,355.15 456.83,355.56 450.50,358.95 C446.10,361.31 442.83,362.89 443.23,362.47 C443.64,362.04 443.38,361.20 442.65,360.60 C441.93,359.99 439.86,356.04 438.06,351.81 L 434.79 344.13 L 430.14 346.29 C427.59,347.49 425.39,348.50 425.27,348.55 C424.91,348.68 429.91,362.14 431.42,365.11 L 432.75 367.72 L 423.12 372.33 C417.83,374.86 411.02,377.85 408.00,378.97 ZM 423.21 477.19 C422.56,477.84 421.32,478.48 420.46,478.61 C419.54,478.74 420.53,477.06 422.88,474.51 C427.09,469.95 431.61,461.95 432.38,457.69 C433.02,454.15 431.29,452.26 425.50,450.19 C418.69,447.76 418.60,445.07 425.25,443.07 C430.43,441.52 431.77,439.00 427.25,439.31 C425.09,439.46 424.43,439.02 424.18,437.24 C423.99,435.91 423.41,435.25 422.77,435.64 C422.12,436.04 421.98,435.84 422.41,435.14 C422.81,434.49 423.56,434.23 424.08,434.55 C425.21,435.25 429.39,434.05 428.59,433.26 C428.28,432.95 428.81,432.06 429.77,431.27 C430.84,430.39 430.93,430.13 430.00,430.59 C427.51,431.81 429.08,430.48 438.60,423.33 C443.61,419.57 452.12,412.79 457.52,408.25 C462.92,403.71 467.94,400.00 468.67,400.00 C470.89,400.00 469.68,413.15 465.96,429.62 C463.99,438.31 463.74,438.79 460.70,439.78 C457.68,440.76 457.63,440.86 459.75,441.53 C460.99,441.91 462.00,443.01 462.00,443.95 C462.00,445.36 460.92,445.71 456.00,445.89 C449.29,446.13 448.20,444.75 452.17,441.05 C454.02,439.33 454.32,438.07 454.13,432.76 C454.01,429.32 453.44,425.02 452.86,423.20 C452.01,420.53 451.55,420.13 450.41,421.08 C448.67,422.52 448.54,420.90 450.25,419.05 C451.25,417.98 451.25,417.85 450.25,418.41 C449.56,418.80 449.00,418.73 449.00,418.26 C449.00,417.79 449.56,416.77 450.25,416.00 C451.31,414.81 451.24,414.79 449.82,415.86 C448.89,416.56 448.19,417.90 448.26,418.83 C448.52,422.27 445.77,430.05 444.62,429.15 C442.85,427.76 440.07,428.19 439.60,429.92 C439.37,430.79 438.87,433.30 438.50,435.50 C438.14,437.70 437.24,440.85 436.52,442.50 C434.16,447.87 434.06,449.78 436.14,450.33 C437.59,450.71 438.40,449.98 439.52,447.29 C440.34,445.35 441.00,443.43 441.00,443.03 C441.00,442.63 442.46,442.35 444.24,442.40 C447.93,442.51 449.02,444.83 446.55,447.30 C445.70,448.15 444.56,449.90 444.01,451.17 C443.46,452.45 442.62,454.17 442.14,455.00 C441.67,455.83 440.48,458.08 439.49,460.00 C436.32,466.20 430.90,472.21 428.95,471.70 C427.88,471.42 426.32,472.19 425.09,473.61 C423.95,474.93 423.33,476.00 423.71,476.00 C424.09,476.00 423.86,476.54 423.21,477.19 ZM 379.27 352.08 C373.58,354.65 364.41,355.19 358.79,353.28 C354.28,351.74 354.04,351.47 353.38,347.09 C352.14,338.91 352.66,334.65 355.95,326.21 C359.72,316.53 364.10,310.38 369.00,307.91 C375.67,304.54 376.34,304.81 377.70,311.50 C378.37,314.80 379.61,324.66 380.46,333.41 C381.30,342.17 382.23,349.56 382.52,349.85 C382.80,350.14 381.34,351.14 379.27,352.08 ZM 407.12 436.81 C402.51,439.83 395.76,443.93 392.12,445.94 C385.23,449.72 382.48,449.95 377.26,447.14 C376.03,446.48 373.46,445.88 371.56,445.81 L 368.09 445.68 L 370.02 442.98 C371.07,441.49 371.62,439.92 371.22,439.48 C370.82,439.04 371.11,439.03 371.86,439.47 C372.61,439.90 373.51,439.80 373.86,439.25 C374.21,438.69 378.55,436.57 383.50,434.52 C403.59,426.23 430.04,411.49 455.96,394.12 C463.37,389.15 469.67,385.34 469.96,385.64 C470.63,386.32 463.03,393.44 446.91,407.23 C434.49,417.86 422.84,426.52 407.12,436.81 ZM 383.02 375.64 C383.01,376.82 382.33,378.05 381.50,378.36 C380.59,378.71 380.00,378.36 380.00,377.47 C380.00,376.66 379.56,376.00 379.02,376.00 C376.48,376.00 367.32,368.88 365.55,365.53 C362.44,359.65 363.88,358.52 374.61,358.41 L 383.50 358.31 L 383.73 362.91 C383.85,365.43 384.21,369.52 384.52,372.00 C384.92,375.25 384.80,376.08 384.06,375.00 C383.21,373.76 383.03,373.87 383.02,375.64 ZM 430.50 326.54 C434.35,330.48 437.78,333.77 438.12,333.85 C438.46,333.93 440.64,332.31 442.95,330.25 L 447.16 326.50 L 444.33 323.81 C442.77,322.33 437.26,318.68 432.08,315.70 L 422.66 310.28 L 420.38 312.89 L 418.10 315.50 L 420.80 317.44 C422.28,318.50 426.65,322.60 430.50,326.54 ZM 418.61 332.47 C420.75,337.15 422.63,340.99 422.80,340.99 C423.91,341.03 429.00,337.77 429.00,337.03 C429.00,335.53 416.14,322.53 415.39,323.27 C415.02,323.65 416.47,327.78 418.61,332.47 ZM 407.42 309.94 C410.22,311.56 412.69,312.91 412.92,312.94 C413.63,313.04 417.00,309.74 417.00,308.94 C417.00,307.63 410.79,305.94 400.50,304.47 C387.36,302.59 385.87,302.75 394.92,305.09 C399.01,306.14 404.63,308.33 407.42,309.94 ZM 451.23 334.81 C451.01,335.47 451.75,336.00 452.89,336.00 C454.32,336.00 454.76,335.54 454.35,334.46 C453.69,332.75 451.85,332.96 451.23,334.81 Z" fill="rgb(32,181,229)"/>
<path d="M 333.28 439.38 C296.67,446.46 275.55,441.04 266.30,422.20 C263.81,417.13 263.51,415.45 263.56,407.00 C263.60,400.65 264.25,395.51 265.50,391.50 L 267.38 385.50 L 268.02 391.50 C268.82,398.96 270.62,402.47 276.31,407.72 C283.43,414.29 289.28,416.68 304.19,419.11 C317.17,421.24 345.59,417.46 369.89,410.39 C403.63,400.58 436.14,385.28 464.00,366.10 C480.40,354.82 483.91,351.73 493.00,340.60 L 497.50 335.10 L 512.68 335.00 L 523.70 323.86 C530.73,316.75 534.97,313.14 535.43,313.89 C535.86,314.57 535.61,314.94 534.82,314.77 C534.10,314.62 533.62,315.10 533.77,315.82 C533.93,316.55 533.64,316.90 533.14,316.59 C532.14,315.97 529.71,318.38 530.51,319.18 C530.79,319.46 530.11,320.50 529.01,321.49 C527.90,322.49 527.00,322.95 527.00,322.50 C527.00,322.05 526.13,322.48 525.07,323.44 C524.00,324.40 523.36,325.78 523.64,326.51 C523.92,327.24 522.61,329.56 520.72,331.66 C518.83,333.77 517.08,336.16 516.82,336.97 C516.45,338.14 514.71,338.38 508.32,338.14 L 500.30 337.84 L 494.44 344.17 C451.87,390.20 385.81,429.24 333.28,439.38 ZM 835.00 461.48 C831.42,462.30 824.00,462.95 818.50,462.93 C800.47,462.85 790.20,457.79 784.18,446.00 C780.99,439.75 780.88,439.14 781.24,430.00 C781.74,417.55 784.29,410.96 791.76,402.89 C797.52,396.67 802.46,393.63 812.00,390.43 C822.04,387.07 848.88,388.27 854.43,392.33 C855.96,393.44 856.01,394.24 854.88,400.32 C853.87,405.84 853.35,406.95 852.07,406.38 C840.92,401.45 822.22,400.74 814.00,404.92 C805.26,409.38 800.13,415.98 797.99,425.54 C795.81,435.26 801.18,444.83 810.66,448.12 C815.47,449.79 827.29,449.78 832.25,448.11 C835.53,447.00 836.00,446.45 836.00,443.67 C836.00,441.92 836.41,439.07 836.90,437.35 C837.74,434.41 837.62,434.17 834.90,433.63 C833.31,433.31 830.76,433.29 829.25,433.58 C827.74,433.87 824.89,433.75 822.92,433.31 L 819.34 432.50 L 822.14 420.00 L 855.16 420.00 L 854.57 422.75 C854.25,424.26 853.34,429.90 852.54,435.27 C849.53,455.58 849.20,456.61 845.14,458.39 C843.14,459.27 838.58,460.66 835.00,461.48 ZM 379.27 352.08 C381.34,351.14 382.80,350.14 382.52,349.85 C382.50,349.83 382.48,349.78 382.45,349.70 L 384.92 349.44 C385.13,349.51 385.73,349.60 386.70,349.72 C388.85,349.99 389.73,350.55 389.38,351.46 C389.10,352.19 389.81,353.45 390.96,354.26 C391.79,354.84 392.55,355.85 393.18,357.14 L 389.19 357.66 C386.61,357.99 384.19,358.54 383.82,358.88 C383.45,359.22 383.72,364.45 384.43,370.50 C385.13,376.55 385.38,381.88 384.97,382.33 C384.56,382.79 378.41,384.85 371.30,386.91 C357.31,390.96 355.67,391.65 356.54,393.07 C356.86,393.58 356.02,394.00 354.68,394.00 C351.51,394.00 351.14,392.31 350.34,374.29 L 349.71 360.08 L 344.60 359.08 C341.80,358.53 337.84,357.79 335.81,357.44 L 332.11 356.80 L 330.59 362.15 C328.38,369.91 327.02,379.49 326.99,387.50 C326.98,392.39 326.68,394.05 326.00,393.00 C325.35,392.00 325.03,391.92 325.02,392.75 C325.00,394.00 322.61,394.29 320.25,393.34 C319.56,393.06 318.93,390.96 318.85,388.67 L 318.70 384.50 L 318.00 389.00 C317.34,393.22 317.29,393.28 317.15,390.00 C316.89,383.74 319.79,367.95 323.60,354.83 C323.92,353.72 323.31,352.92 321.79,352.44 C320.53,352.05 317.19,350.25 314.37,348.45 L 309.24 345.18 L 306.64 349.84 C305.22,352.40 304.04,353.91 304.02,353.19 C304.01,352.47 303.61,352.13 303.12,352.42 C301.62,353.35 295.62,348.61 294.97,345.99 C294.40,343.68 295.40,341.14 298.54,337.00 C299.16,336.17 303.70,331.39 308.61,326.38 C318.72,316.05 330.65,308.04 343.55,302.58 C343.04,302.96 342.71,303.32 342.57,303.67 C342.27,304.47 343.12,306.14 344.51,307.42 C347.47,310.16 347.56,310.83 345.25,312.68 C344.29,313.46 345.39,313.17 347.71,312.04 C348.82,311.50 349.71,311.08 350.40,310.77 C346.61,312.55 338.76,317.00 334.56,319.86 C328.42,324.04 314.00,337.53 314.00,339.08 C314.00,339.57 316.59,341.30 319.75,342.94 C322.91,344.57 325.73,345.92 326.00,345.94 C326.43,345.97 331.10,338.32 337.24,327.55 C337.59,326.93 338.09,326.21 338.66,325.49 C338.70,325.50 338.78,325.48 338.92,325.40 C339.94,324.88 340.17,325.12 339.73,326.25 C338.66,329.04 341.82,329.02 345.22,326.22 C347.03,324.73 347.91,324.28 347.18,325.20 C346.65,325.87 348.61,324.07 351.87,320.93 C350.60,322.29 349.41,323.62 348.38,324.88 C343.20,331.14 336.00,344.14 336.00,347.22 C336.00,348.28 337.52,349.10 340.75,349.77 C350.30,351.76 350.81,351.59 351.44,346.25 C351.82,343.05 352.32,339.99 352.93,337.08 C352.59,340.11 352.78,343.14 353.38,347.09 C354.04,351.47 354.28,351.74 358.79,353.28 C364.41,355.19 373.58,354.65 379.27,352.08 ZM 921.33 461.25 C920.81,462.12 863.00,462.29 863.00,461.42 C863.00,461.09 865.21,447.26 867.92,430.67 C870.63,414.07 873.22,398.02 873.68,395.00 L 874.52 389.50 L 903.31 389.23 L 932.10 388.97 L 931.42 395.23 C931.04,398.68 930.54,401.84 930.31,402.25 C930.07,402.66 920.71,403.00 909.51,403.00 C907.53,403.00 905.73,402.99 904.11,402.99 C894.22,402.95 890.54,402.93 889.01,404.74 C887.85,406.10 887.93,408.52 887.47,412.75 L 886.80 419.00 L 923.72 419.00 L 921.49 431.50 L 884.20 432.04 L 883.10 438.35 C882.94,439.28 882.77,440.12 882.63,440.88 C882.09,443.63 881.76,445.33 882.44,446.38 C883.54,448.07 887.27,448.06 897.05,448.01 C898.72,448.01 900.56,448.00 902.60,448.00 L 923.20 448.00 L 922.48 454.25 C922.09,457.69 921.57,460.84 921.33,461.25 ZM 976.54 461.45 C972.79,462.43 966.68,462.96 960.04,462.88 C948.59,462.76 948.68,462.77 938.64,459.85 C931.79,457.85 931.78,457.85 932.40,454.73 C934.15,446.01 935.10,443.82 936.81,444.54 C948.99,449.65 964.98,451.43 972.60,448.52 C976.21,447.14 977.53,445.98 978.70,443.16 C980.18,439.63 980.16,439.53 977.18,436.87 C975.08,435.00 971.77,433.65 966.33,432.45 C943.41,427.42 936.10,419.98 940.06,405.72 C943.60,392.96 961.52,385.98 983.29,388.88 C994.31,390.34 999.00,392.13 998.48,394.67 C998.28,395.68 997.59,398.85 996.96,401.73 L 995.81 406.95 L 992.94 405.47 C987.83,402.82 975.96,400.81 969.56,401.50 C960.38,402.49 956.00,405.53 956.00,410.91 C956.00,413.92 959.23,415.56 971.69,418.84 C984.81,422.29 990.53,425.18 993.80,430.00 C995.83,433.00 996.12,434.45 995.81,440.11 C995.21,451.11 988.72,458.29 976.54,461.45 ZM 317.06 475.02 C311.31,476.11 305.24,476.95 303.56,476.88 C296.28,476.59 288.79,474.79 286.87,472.87 C285.76,471.76 284.24,471.08 283.50,471.36 C282.73,471.66 280.99,470.36 279.46,468.36 C275.67,463.39 271.25,459.00 270.03,459.00 C269.47,459.00 269.09,458.66 269.20,458.25 C269.53,457.01 267.92,453.00 267.09,453.00 C266.38,453.00 264.00,448.64 264.00,447.32 C264.00,447.00 265.64,447.00 267.64,447.33 C270.96,447.87 271.11,447.79 269.39,446.48 C268.35,445.68 270.65,446.61 274.50,448.53 C285.21,453.87 298.42,455.81 312.62,454.10 C334.02,451.54 350.72,447.41 371.22,439.47 L 371.22 439.48 C371.62,439.92 371.07,441.49 370.02,442.98 L 368.09 445.68 L 371.56 445.81 C373.46,445.88 376.03,446.48 377.26,447.14 C381.81,449.59 384.49,449.73 389.67,447.21 C364.93,461.00 339.92,470.69 317.06,475.02 ZM 422.03 475.47 C422.01,475.42 422.00,475.37 422.00,475.31 C422.00,474.86 419.58,474.48 416.61,474.46 C412.47,474.43 410.28,473.79 407.11,471.69 C404.85,470.20 403.00,468.36 403.00,467.61 C403.00,466.86 402.31,465.68 401.48,464.98 C400.19,463.91 400.05,464.01 400.57,465.61 C400.95,466.78 400.86,467.05 400.34,466.33 C399.87,465.69 397.91,464.97 395.99,464.74 L 392.50 464.32 L 396.12 464.16 C399.49,464.01 399.78,463.74 400.36,460.25 C400.70,458.19 400.98,454.83 400.99,452.79 C401.00,449.95 401.53,448.79 403.25,447.90 C405.12,446.92 415.83,439.90 422.23,435.47 C422.05,435.89 422.24,435.97 422.77,435.64 C423.41,435.25 423.99,435.91 424.18,437.24 C424.43,439.02 425.09,439.46 427.25,439.31 C431.77,439.00 430.43,441.52 425.25,443.07 C418.60,445.07 418.69,447.76 425.50,450.19 C431.29,452.26 433.02,454.15 432.38,457.69 C431.61,461.95 427.09,469.95 422.88,474.51 C422.58,474.85 422.29,475.17 422.03,475.47 ZM 423.21 477.19 C423.86,476.54 424.09,476.00 423.71,476.00 C423.62,476.00 423.59,475.94 423.60,475.84 C423.76,475.58 423.84,475.39 423.84,475.28 C424.09,474.85 424.53,474.26 425.09,473.61 C426.32,472.19 427.88,471.42 428.95,471.70 C430.90,472.21 436.32,466.20 439.49,460.00 C440.48,458.08 441.67,455.83 442.14,455.00 C442.62,454.17 443.46,452.45 444.01,451.17 C444.56,449.90 445.70,448.15 446.55,447.30 C449.02,444.83 447.93,442.51 444.24,442.40 C442.96,442.36 441.85,442.49 441.33,442.72 C441.52,442.22 441.72,441.70 441.93,441.14 C445.53,431.68 445.61,428.56 442.27,428.39 C441.98,428.37 441.71,428.37 441.47,428.39 C442.48,428.19 443.69,428.42 444.62,429.15 C445.77,430.05 448.52,422.27 448.26,418.83 C448.19,417.90 448.89,416.56 449.82,415.86 C451.24,414.79 451.31,414.81 450.25,416.00 C449.56,416.77 449.00,417.79 449.00,418.26 C449.00,418.73 449.56,418.80 450.25,418.41 C451.25,417.85 451.25,417.98 450.25,419.05 C448.54,420.90 448.67,422.52 450.41,421.08 C451.55,420.13 452.01,420.53 452.86,423.20 C453.44,425.02 454.01,429.32 454.13,432.76 C454.32,438.07 454.02,439.33 452.17,441.05 C448.20,444.75 449.29,446.13 456.00,445.89 C459.98,445.74 461.44,445.49 461.86,444.66 C460.73,449.21 453.03,461.75 447.84,467.21 C444.55,470.67 442.15,472.94 442.49,472.25 C442.89,471.45 442.29,470.94 440.81,470.84 C435.54,470.48 434.59,470.83 430.23,474.75 C428.24,476.54 425.68,478.03 424.55,478.08 C423.60,478.11 422.21,478.25 421.21,478.41 C421.94,478.14 422.73,477.67 423.21,477.19 ZM 482.68 340.75 C478.31,343.72 477.39,343.59 479.93,340.37 C481.57,338.28 482.00,336.30 482.00,330.87 C482.00,327.09 481.59,324.00 481.08,324.00 C480.58,324.00 477.54,321.74 474.33,318.97 C469.33,314.66 468.06,314.02 465.41,314.48 C458.55,315.70 454.33,307.86 459.31,303.17 C463.67,299.09 470.00,301.55 470.00,307.33 C470.00,310.01 471.00,311.43 475.93,315.78 C479.20,318.65 482.35,321.00 482.94,321.00 C483.54,321.00 487.58,317.60 491.93,313.45 C496.78,308.81 500.92,305.70 502.66,305.39 C505.42,304.90 505.44,304.93 503.50,306.52 C502.40,307.41 502.17,307.82 503.00,307.43 C503.83,307.03 502.48,308.44 500.00,310.56 C497.52,312.68 493.37,316.68 490.76,319.46 C486.03,324.48 486.01,324.53 486.00,331.50 C485.99,338.30 485.89,338.57 482.68,340.75 ZM 383.02 375.64 C383.03,373.87 383.21,373.76 384.06,375.00 C384.80,376.08 384.92,375.25 384.52,372.00 C384.21,369.52 383.85,365.43 383.73,362.91 L 383.50 358.31 L 374.61 358.41 C363.88,358.52 362.44,359.65 365.55,365.53 C367.32,368.88 376.48,376.00 379.02,376.00 C379.56,376.00 380.00,376.66 380.00,377.47 C380.00,378.36 380.59,378.71 381.50,378.36 C382.33,378.05 383.01,376.82 383.02,375.64 ZM 540.81 356.96 C538.04,359.54 534.97,359.55 531.73,357.00 C529.40,355.17 527.67,355.00 511.39,355.00 C488.11,355.00 489.10,353.16 512.84,352.30 C528.04,351.76 530.00,351.49 530.00,350.00 C530.00,345.68 538.11,343.25 541.43,346.57 C543.76,348.90 543.43,354.53 540.81,356.96 ZM 410.55 377.96 C414.00,376.53 419.02,374.29 423.12,372.33 L 432.75 367.72 L 432.15 366.54 C433.15,367.30 434.82,366.62 439.13,364.43 C442.25,362.86 443.39,362.09 443.29,361.39 C443.48,361.81 443.48,362.21 443.23,362.47 C442.83,362.89 446.10,361.31 450.50,358.95 C456.83,355.56 458.08,355.15 456.50,356.97 C455.40,358.23 457.65,356.92 461.50,354.05 C464.43,351.86 467.68,349.55 469.73,348.18 C467.40,349.75 463.30,352.72 459.44,355.64 C447.87,364.37 430.82,374.99 431.10,373.29 C431.44,371.28 430.87,370.99 429.42,372.44 C428.55,373.31 427.44,373.77 426.96,373.48 C426.48,373.18 424.46,373.62 422.48,374.45 C420.49,375.28 418.56,375.87 418.18,375.77 C417.60,375.61 414.19,376.64 410.55,377.96 ZM 533.31 353.36 C534.11,355.45 537.36,355.48 539.07,353.42 C540.02,352.27 540.10,351.38 539.33,350.17 C537.15,346.70 531.84,349.52 533.31,353.36 ZM 461.01 309.51 C462.55,311.37 464.41,311.41 465.89,309.63 C467.57,307.60 466.15,305.00 463.36,305.00 C460.51,305.00 459.26,307.40 461.01,309.51 ZM 395.52 367.37 C395.59,367.33 395.66,367.23 395.73,367.04 C396.36,365.46 398.96,373.06 398.98,376.55 C399.00,378.46 400.69,381.00 401.95,381.00 C402.19,381.00 404.03,380.40 406.32,379.58 C404.91,380.15 403.63,380.72 402.65,381.21 C400.54,382.27 398.67,383.00 398.51,382.82 C398.34,382.64 397.92,380.25 397.57,377.50 C397.22,374.75 396.53,371.15 396.05,369.50 C395.89,368.96 395.70,368.21 395.52,367.37 ZM 393.00 473.71 C393.00,477.67 392.03,478.16 391.93,474.25 C391.88,472.17 391.69,471.93 391.16,473.26 C390.52,474.88 390.29,474.89 388.22,473.44 C385.37,471.45 386.25,469.91 390.07,470.20 C392.67,470.40 393.00,470.79 393.00,473.71 ZM 391.55 457.53 C391.16,461.03 390.60,461.32 388.58,459.09 C386.91,457.25 386.93,457.11 388.85,456.08 C391.67,454.57 391.86,454.67 391.55,457.53 ZM 423.74 434.42 C423.82,434.37 423.90,434.31 423.98,434.25 C425.96,432.86 428.59,430.92 431.55,428.69 C428.48,431.08 428.35,431.40 430.00,430.59 C430.93,430.13 430.84,430.39 429.77,431.27 C428.81,432.06 428.28,432.95 428.59,433.26 C429.39,434.05 425.21,435.25 424.08,434.55 C423.97,434.48 423.86,434.44 423.74,434.42 ZM 371.60 439.32 C373.69,438.51 375.82,437.66 378.00,436.76 C390.22,431.75 402.11,426.11 414.30,419.52 C403.14,425.62 392.66,430.74 383.50,434.52 C378.55,436.57 374.21,438.69 373.86,439.25 C373.51,439.80 372.61,439.90 371.86,439.47 C371.77,439.41 371.68,439.36 371.60,439.32 ZM 431.77 305.24 C431.68,305.20 431.59,305.15 431.50,305.11 C413.83,296.55 397.66,293.24 379.00,294.35 C373.79,294.66 368.04,295.46 362.67,296.51 C379.64,292.81 397.46,293.24 414.50,298.22 C420.04,299.84 425.95,302.27 431.77,305.24 ZM 445.00 468.50 C443.71,469.88 442.88,471.00 443.15,471.00 C443.43,471.00 444.71,469.88 446.00,468.50 C447.29,467.12 448.12,466.00 447.85,466.00 C447.57,466.00 446.29,467.12 445.00,468.50 ZM 527.00 321.62 C527.00,322.45 527.82,321.92 529.13,320.25 C530.37,318.66 530.34,318.63 528.75,319.87 C527.79,320.63 527.00,321.41 527.00,321.62 ZM 377.50 310.55 C376.80,307.29 376.20,305.85 374.66,305.79 C375.62,305.67 376.32,305.71 376.48,305.96 C376.69,306.31 377.06,308.05 377.50,310.55 ZM 387.38 349.17 C389.71,348.91 391.66,348.60 391.82,348.46 C392.09,348.23 390.14,340.30 387.72,331.36 C390.00,339.69 391.99,347.40 391.99,348.25 C392.00,348.66 390.09,349.07 387.75,349.16 C387.62,349.16 387.50,349.17 387.38,349.17 ZM 463.42 328.50 C459.25,324.03 454.16,319.57 448.61,315.50 C454.38,319.65 459.51,324.10 463.42,328.50 ZM 437.39 424.24 C444.64,418.66 452.55,412.40 457.50,408.25 C462.24,404.28 466.68,400.94 468.20,400.17 C466.68,400.94 462.25,404.28 457.52,408.25 C452.12,412.79 443.61,419.57 438.60,423.33 C438.18,423.65 437.78,423.95 437.39,424.24 ZM 421.12 476.59 C420.28,477.68 419.94,478.41 420.20,478.58 C419.23,478.70 419.24,478.42 420.06,477.43 C420.38,477.05 420.76,476.75 421.12,476.59 ZM 380.75 336.34 C380.65,335.38 380.55,334.41 380.46,333.41 C380.04,329.09 379.52,324.49 379.03,320.55 C379.65,325.08 380.20,329.73 380.46,333.00 C380.55,334.05 380.64,335.18 380.75,336.34 ZM 372.77 306.18 C371.78,306.53 370.55,307.12 369.00,307.91 C368.17,308.33 367.36,308.85 366.56,309.48 C368.35,308.00 370.26,306.94 372.25,306.33 C372.42,306.28 372.60,306.23 372.77,306.18 ZM 394.31 360.19 C394.72,361.72 394.99,363.40 395.07,365.11 C394.85,363.98 394.66,362.81 394.52,361.78 ZM 409.80 435.04 C417.12,430.20 423.56,425.68 429.67,421.09 C423.15,426.01 416.51,430.67 409.80,435.04 ZM 473.59 345.41 C474.17,344.48 473.69,343.33 472.30,340.65 C473.37,342.52 474.00,343.98 474.00,344.74 C474.00,344.90 473.85,345.13 473.59,345.41 ZM 362.14 314.23 C360.13,317.02 358.25,320.56 356.49,324.85 C358.11,320.71 360.01,317.13 362.14,314.23 ZM 428.40 357.77 C426.70,353.32 425.05,348.63 425.27,348.55 C425.13,348.60 426.68,353.10 428.40,357.77 ZM 339.82 324.11 C340.48,323.39 341.14,322.74 341.74,322.25 C342.04,322.01 342.31,321.78 342.55,321.55 C342.12,322.00 341.58,322.52 340.96,323.07 C340.53,323.45 340.15,323.80 339.82,324.11 ZM 440.27 428.92 C439.83,429.40 439.52,430.25 439.20,431.74 C439.36,430.94 439.50,430.28 439.60,429.92 C439.71,429.51 439.95,429.18 440.27,428.92 ZM 462.00 443.85 C461.93,442.93 460.94,441.90 459.75,441.53 C460.99,441.91 462.00,442.90 462.00,443.71 C462.00,443.76 462.00,443.80 462.00,443.85 ZM 372.53 304.45 C373.75,304.13 374.97,304.00 376.29,304.00 C375.20,304.01 373.79,304.19 372.53,304.45 ZM 440.00 446.12 C439.85,446.50 439.69,446.89 439.52,447.29 C439.11,448.29 438.73,449.01 438.36,449.51 C438.81,448.86 439.31,447.80 440.00,446.12 ZM 434.69 447.89 C434.83,446.69 435.44,444.95 436.52,442.50 C435.46,444.90 434.86,446.66 434.69,447.89 ZM 352.62 310.26 C352.73,310.46 352.60,310.88 352.36,311.50 C352.56,310.99 352.65,310.53 352.62,310.26 ZM 343.56 320.01 L 343.55 320.00 C343.54,320.00 343.52,320.00 343.51,320.00 L 343.52 320.00 C343.53,320.00 343.55,320.00 343.56,320.01 Z" fill="rgb(28,123,137)"/>
<path d="M 710.02 456.42 L 708.86 462.00 L 700.93 462.00 C696.57,462.00 693.00,461.60 693.00,461.11 C693.00,460.62 693.86,456.01 694.91,450.86 C695.96,445.71 697.18,438.80 697.61,435.50 C698.04,432.20 698.45,429.27 698.51,429.00 C698.56,428.73 699.20,425.12 699.91,421.00 C700.62,416.88 702.06,408.57 703.10,402.54 C704.15,396.50 705.00,391.22 705.00,390.79 C705.00,390.35 708.71,390.01 713.25,390.03 L 721.50 390.06 L 724.92 395.78 C731.66,407.08 750.39,436.00 750.96,436.00 C751.28,436.00 752.55,429.36 753.78,421.25 C755.01,413.14 756.73,402.67 757.59,397.98 L 759.17 389.47 L 766.84 389.84 C771.05,390.05 774.58,390.29 774.68,390.37 C774.82,390.49 765.38,448.22 763.49,458.75 L 762.91 462.00 L 748.33 462.00 L 742.51 452.75 C739.30,447.66 732.63,436.98 727.67,429.00 C726.81,427.62 726.04,426.37 725.33,425.23 C719.14,415.26 718.19,413.74 717.77,413.87 C717.65,413.91 717.57,414.10 717.42,414.25 C716.90,414.76 716.01,419.89 712.06,445.17 C711.57,448.29 710.65,453.36 710.02,456.42 ZM 408.00 378.97 C408.68,378.72 409.55,378.37 410.55,377.96 C414.19,376.64 417.60,375.61 418.18,375.77 C418.56,375.87 420.49,375.28 422.48,374.45 C424.46,373.62 426.48,373.18 426.96,373.48 C427.44,373.77 428.55,373.31 429.42,372.44 C430.87,370.99 431.44,371.28 431.10,373.29 C431.00,373.89 433.01,372.98 436.16,371.18 C405.66,389.18 369.36,402.62 336.87,407.43 C316.44,410.45 298.79,408.90 288.69,403.19 C281.16,398.94 279.59,396.33 279.34,387.70 C278.99,375.88 284.03,360.72 293.63,344.70 C294.69,342.93 295.49,341.58 296.23,340.42 C294.93,342.69 294.58,344.39 294.97,345.99 C295.62,348.61 301.62,353.35 303.12,352.42 C303.61,352.13 304.01,352.47 304.02,353.19 C304.04,353.91 305.22,352.40 306.64,349.84 L 307.14 348.95 L 304.47 354.51 C299.99,363.83 296.00,376.78 296.00,381.96 C296.00,384.11 296.88,385.03 300.75,386.95 C303.36,388.24 307.98,390.08 311.00,391.04 L 316.50 392.78 L 317.21 387.09 C317.14,388.21 317.12,389.18 317.15,390.00 C317.29,393.28 317.34,393.22 318.00,389.00 L 318.70 384.50 L 318.85 388.67 C318.93,390.96 319.56,393.06 320.25,393.34 C322.61,394.29 325.00,394.00 325.02,392.75 C325.03,391.92 325.35,392.00 326.00,393.00 C326.68,394.05 326.98,392.39 326.99,387.50 C327.00,386.29 327.03,385.04 327.09,383.77 C327.04,384.94 327.01,386.08 327.01,387.18 C327.00,393.69 327.07,393.88 329.75,394.35 C333.09,394.93 350.86,394.47 351.55,393.79 C351.71,393.62 351.69,392.26 351.51,390.34 C352.10,393.52 352.99,394.00 354.68,394.00 C356.02,394.00 356.86,393.58 356.54,393.07 C356.47,392.95 356.41,392.83 356.38,392.72 C356.57,392.91 357.12,393.00 358.05,393.00 C364.17,393.00 384.14,388.06 395.33,383.77 C398.06,382.73 398.15,382.49 397.56,377.59 C397.45,376.66 397.30,375.64 397.14,374.63 C397.30,375.61 397.46,376.60 397.57,377.50 C397.92,380.25 398.34,382.64 398.51,382.82 C398.67,383.00 400.54,382.27 402.65,381.21 C403.63,380.72 404.91,380.15 406.32,379.58 C406.86,379.39 407.42,379.18 408.00,378.97 ZM 554.03 462.97 C549.37,463.54 545.09,463.94 544.53,463.86 C527.61,461.62 518.45,456.58 513.20,446.62 C510.74,441.95 510.50,440.53 510.50,430.45 C510.50,419.68 510.60,419.20 514.28,411.75 C518.73,402.74 523.50,398.19 533.50,393.41 C546.82,387.04 565.74,386.51 580.11,392.11 L 582.73 393.13 L 581.34 399.76 C580.58,403.40 579.82,406.51 579.67,406.67 C579.51,406.82 576.93,405.97 573.94,404.76 C569.49,402.97 566.50,402.58 557.50,402.58 C545.61,402.58 542.10,403.68 535.09,409.58 C529.29,414.45 525.42,424.92 526.56,432.58 C528.88,447.99 548.06,453.95 569.44,445.91 C572.16,444.88 574.48,444.15 574.61,444.28 C574.74,444.40 574.32,447.78 573.69,451.79 L 572.55 459.08 L 567.52 460.51 C564.76,461.29 558.69,462.40 554.03,462.97 ZM 637.20 461.94 C631.08,463.16 616.46,463.17 610.23,461.94 C607.88,461.48 603.21,459.63 599.85,457.84 C589.05,452.08 584.24,441.85 585.28,426.79 C585.96,416.86 590.72,406.30 597.12,400.51 C603.40,394.84 614.05,390.22 623.87,388.90 C633.20,387.64 647.45,388.91 653.76,391.55 L 657.27 393.01 L 656.64 398.42 C655.78,405.73 655.10,407.27 653.12,406.42 C647.67,404.09 637.60,402.00 631.81,402.00 C619.99,402.00 609.26,407.59 605.08,415.91 C596.68,432.62 603.72,446.89 621.71,449.58 C626.62,450.32 637.11,448.68 644.79,445.98 L 650.16 444.10 L 649.51 448.30 C647.68,460.24 648.12,459.74 637.20,461.94 ZM 403.50 501.92 C379.80,506.39 357.89,502.86 335.00,490.88 C329.77,488.15 324.41,485.08 323.08,484.07 L 320.66 482.23 L 325.07 481.49 C327.49,481.08 331.17,480.15 333.23,479.42 C336.82,478.15 337.38,478.27 345.25,481.97 C349.79,484.10 354.62,486.15 356.00,486.53 C358.19,487.12 358.30,487.04 356.90,485.85 C356.01,485.11 353.41,482.40 351.10,479.84 L 346.91 475.18 L 350.48 474.01 C353.96,472.86 354.16,472.94 359.35,477.67 C362.28,480.32 368.68,484.75 373.59,487.50 L 382.50 492.50 L 393.00 492.44 C403.03,492.37 403.74,492.23 409.00,489.09 C415.61,485.14 417.27,483.71 421.35,478.50 L 421.45 478.37 C422.43,478.23 423.68,478.11 424.55,478.08 C425.68,478.03 428.24,476.54 430.23,474.75 C434.59,470.83 435.54,470.48 440.81,470.84 C442.29,470.94 442.89,471.45 442.49,472.25 C442.15,472.94 444.55,470.67 447.84,467.21 C450.43,464.49 453.65,459.99 456.37,455.61 C453.68,460.00 450.51,464.52 447.98,467.29 C442.30,473.48 429.42,482.96 421.75,486.59 C412.72,490.87 421.30,489.61 433.22,484.91 C439.67,482.37 453.48,475.37 458.18,472.26 C464.20,468.28 463.66,470.17 457.03,476.32 C444.01,488.37 423.62,498.12 403.50,501.92 ZM 496.87 428.75 L 491.57 462.00 L 483.29 462.00 C478.73,462.00 475.00,461.62 475.00,461.15 C475.00,460.68 477.22,446.84 479.94,430.40 C482.66,413.95 485.25,398.02 485.70,395.00 L 486.51 389.50 L 494.88 389.21 L 503.24 388.92 L 502.70 392.21 C502.41,394.02 499.78,410.46 496.87,428.75 ZM 681.90 429.25 L 676.59 462.00 L 668.30 462.00 C663.73,462.00 660.00,461.80 660.00,461.57 C660.00,461.33 660.92,455.82 662.05,449.32 C663.18,442.82 664.54,434.58 665.07,431.00 C666.51,421.34 670.92,394.84 671.52,392.25 C672.00,390.14 672.56,390.00 680.15,390.00 L 688.26 390.00 L 687.74 393.25 C687.45,395.04 684.82,411.24 681.90,429.25 ZM 391.55 457.53 C391.84,454.84 391.69,454.59 389.31,455.83 C391.01,454.81 392.07,454.74 391.80,455.75 C391.69,456.16 391.95,457.51 392.37,458.75 C392.96,460.48 393.91,461.00 396.46,461.00 C398.88,461.00 400.05,460.53 400.59,458.59 C400.52,459.19 400.44,459.76 400.36,460.25 C399.78,463.74 399.49,464.01 396.12,464.16 L 392.50 464.32 L 395.99 464.74 C396.48,464.80 396.96,464.89 397.43,465.00 L 393.00 465.00 L 393.00 475.92 C393.00,481.92 392.73,487.55 392.39,488.42 C391.48,490.80 382.90,490.50 377.81,487.90 C373.34,485.62 365.57,478.01 362.69,473.08 L 360.88 469.98 L 365.69 467.94 C371.25,465.59 383.34,459.50 387.46,457.03 C387.17,457.47 387.56,457.96 388.58,459.09 C390.60,461.32 391.16,461.03 391.55,457.53 ZM 296.33 454.43 C288.36,453.75 280.97,451.76 274.50,448.53 C270.65,446.61 268.35,445.68 269.39,446.48 C271.11,447.79 270.96,447.87 267.64,447.33 C265.64,447.00 264.00,447.00 264.00,447.32 C264.00,448.64 266.38,453.00 267.09,453.00 C267.92,453.00 269.53,457.01 269.20,458.25 C269.09,458.66 269.47,459.00 270.03,459.00 C271.25,459.00 275.67,463.39 279.46,468.36 C280.99,470.36 282.73,471.66 283.50,471.36 C284.24,471.08 285.76,471.76 286.87,472.87 C288.59,474.59 294.76,476.21 301.25,476.74 C293.93,477.10 286.93,476.90 283.38,476.05 C281.67,475.64 278.26,474.34 275.81,473.15 C263.56,467.22 257.85,457.67 257.32,442.25 C257.12,436.54 257.38,433.00 258.00,433.00 C258.55,433.00 259.00,433.41 259.00,433.92 C259.00,434.43 261.29,437.34 264.08,440.40 C270.81,447.76 278.52,451.48 291.62,453.70 C293.42,454.00 294.95,454.24 296.33,454.43 ZM 422.03 475.47 C421.68,475.87 421.37,476.25 421.12,476.59 C420.76,476.75 420.38,477.05 420.06,477.43 C419.55,478.05 419.35,478.39 419.51,478.53 L 419.49 478.55 C412.53,484.18 409.63,485.89 403.28,488.07 C397.42,490.09 395.47,489.83 396.50,487.15 C397.40,484.82 398.96,476.45 399.65,470.25 L 400.11 466.10 C400.20,466.18 400.28,466.26 400.34,466.33 C400.86,467.05 400.95,466.78 400.57,465.61 C400.05,464.01 400.19,463.91 401.48,464.98 C402.31,465.68 403.00,466.86 403.00,467.61 C403.00,468.36 404.85,470.20 407.11,471.69 C410.28,473.79 412.47,474.43 416.61,474.46 C419.58,474.48 422.00,474.86 422.00,475.31 C422.00,475.37 422.01,475.42 422.03,475.47 ZM 517.58 335.63 C518.32,334.53 519.49,333.04 520.72,331.66 C522.61,329.56 523.92,327.24 523.64,326.51 C523.36,325.78 524.00,324.40 525.07,323.44 C526.13,322.48 527.00,322.05 527.00,322.50 C527.00,322.95 527.90,322.49 529.01,321.49 C530.11,320.50 530.79,319.46 530.51,319.18 C529.71,318.38 532.14,315.97 533.14,316.59 C533.64,316.90 533.93,316.55 533.77,315.82 C533.62,315.10 534.10,314.62 534.82,314.77 C535.61,314.94 535.86,314.57 535.43,313.89 C534.98,313.16 530.89,316.61 524.10,323.45 C532.91,314.53 535.63,311.14 536.08,308.51 C536.95,303.45 538.62,302.00 543.60,302.00 C547.40,302.00 548.14,302.37 549.47,304.95 C551.65,309.17 551.39,310.76 547.97,314.19 C545.03,317.12 544.06,317.28 539.73,315.50 C538.36,314.94 535.64,317.04 527.87,324.63 C523.23,329.18 519.05,333.66 517.58,335.63 ZM 503.45 303.94 C503.88,304.42 504.29,304.82 504.69,305.12 C504.40,305.09 503.74,305.20 502.66,305.39 C500.92,305.70 496.78,308.81 491.93,313.45 C499.52,306.19 499.78,305.79 499.29,302.12 C498.85,298.85 499.16,298.02 501.52,296.16 C505.13,293.33 508.52,293.43 511.55,296.45 C514.88,299.79 514.69,303.47 510.97,307.18 C508.41,309.74 507.43,310.11 504.63,309.59 C501.53,309.01 500.80,309.47 493.65,316.57 L 490.86 319.35 C493.47,316.58 497.56,312.65 500.00,310.56 C502.48,308.44 503.83,307.03 503.00,307.43 C502.17,307.82 502.40,307.41 503.50,306.52 C504.35,305.82 504.82,305.43 504.86,305.24 C506.54,306.45 507.90,305.98 509.40,303.85 C511.50,300.84 509.80,297.77 506.28,298.19 C502.47,298.65 501.12,301.37 503.45,303.94 ZM 540.57 311.43 C542.84,313.69 544.88,313.37 546.17,310.53 C547.39,307.85 545.99,305.00 543.45,305.00 C541.98,305.00 539.00,307.68 539.00,309.00 C539.00,309.47 539.71,310.56 540.57,311.43 ZM 393.00 473.71 C393.00,470.79 392.67,470.40 390.07,470.20 C386.25,469.91 385.37,471.45 388.22,473.44 C390.29,474.89 390.52,474.88 391.16,473.26 C391.69,471.93 391.88,472.17 391.93,474.25 C392.03,478.16 393.00,477.67 393.00,473.71 ZM 445.00 468.50 C446.29,467.12 447.57,466.00 447.85,466.00 C448.12,466.00 447.29,467.12 446.00,468.50 C444.71,469.88 443.43,471.00 443.15,471.00 C442.88,471.00 443.71,469.88 445.00,468.50 ZM 351.01 386.20 C350.47,382.35 350.03,375.05 350.02,369.82 L 350.01 366.93 L 350.34 374.29 C350.57,379.51 350.77,383.36 351.01,386.20 ZM 527.00 321.62 C527.00,321.41 527.79,320.63 528.75,319.87 C530.34,318.63 530.37,318.66 529.13,320.25 C527.82,321.92 527.00,322.45 527.00,321.62 ZM 356.68 391.92 C356.57,392.03 356.48,392.13 356.42,392.23 C356.90,391.23 360.15,390.14 370.77,387.07 C363.59,389.15 357.28,391.32 356.68,391.92 ZM 320.71 366.01 C321.79,360.91 322.92,356.41 323.68,354.40 C323.67,354.54 323.64,354.68 323.60,354.83 C322.55,358.44 321.57,362.25 320.71,366.01 ZM 443.26 366.84 C448.46,363.51 454.46,359.40 459.44,355.64 C463.30,352.72 467.40,349.76 469.73,348.18 L 469.73 348.18 L 469.84 348.10 C467.53,349.66 463.36,352.68 459.44,355.66 C454.33,359.52 448.92,363.26 443.26,366.84 ZM 300.12 335.22 C301.89,333.23 304.37,330.71 308.61,326.38 C305.21,329.85 301.99,333.21 300.12,335.22 ZM 515.91 337.84 C514.87,338.31 512.86,338.31 508.39,338.14 C512.65,338.30 514.83,338.25 515.91,337.84 ZM 423.74 475.45 L 423.83 475.34 C423.81,475.45 423.73,475.62 423.60,475.84 C423.61,475.75 423.66,475.62 423.74,475.45 ZM 349.71 360.08 L 344.75 359.11 C341.86,358.54 337.84,357.79 335.81,357.44 C337.84,357.79 341.80,358.53 344.60,359.08 L 349.71 360.08 ZM 401.56 449.45 C401.90,448.77 402.44,448.32 403.25,447.90 C402.46,448.31 401.91,448.78 401.56,449.45 ZM 516.82 336.97 C516.86,336.85 516.93,336.71 517.02,336.54 C516.96,336.69 516.89,336.84 516.82,336.97 Z" fill="rgb(14,51,95)"/>
<path d="M 0.00 418.00 L 0.00 0.00 L 627.00 0.00 L 1254.00 0.00 L 1254.00 418.00 L 1254.00 836.00 L 627.00 836.00 L 0.00 836.00 L 0.00 418.00 ZM 403.50 501.92 C423.62,498.12 444.01,488.37 457.03,476.32 C463.66,470.17 464.20,468.28 458.18,472.26 C453.48,475.37 439.67,482.37 433.22,484.91 C421.30,489.61 412.72,490.87 421.75,486.59 C429.42,482.96 442.30,473.48 447.98,467.29 C453.49,461.26 462.00,446.97 462.00,443.71 C462.00,442.90 460.99,441.91 459.75,441.53 C457.63,440.86 457.68,440.76 460.70,439.78 C463.74,438.79 463.99,438.31 465.96,429.62 C469.68,413.15 470.89,400.00 468.67,400.00 C467.94,400.00 462.92,403.71 457.50,408.25 C448.95,415.42 431.62,428.87 423.98,434.25 C418.01,438.47 405.31,446.83 403.25,447.90 C401.44,448.84 401.00,449.92 401.00,453.45 C401.00,459.82 400.29,461.00 396.46,461.00 C393.91,461.00 392.96,460.48 392.37,458.75 C391.95,457.51 391.69,456.16 391.80,455.75 C392.11,454.58 390.64,454.87 388.44,456.41 C385.80,458.25 371.80,465.35 365.69,467.94 L 360.88 469.98 L 362.69 473.08 C365.57,478.01 373.34,485.62 377.81,487.90 C382.90,490.50 391.48,490.80 392.39,488.42 C392.73,487.55 393.00,481.92 393.00,475.92 L 393.00 465.00 L 396.62 465.00 L 400.23 465.00 L 399.65 470.25 C398.96,476.45 397.40,484.82 396.50,487.15 C395.47,489.83 397.42,490.09 403.28,488.07 C409.63,485.89 412.53,484.18 419.49,478.55 L 424.49 474.50 L 421.35 478.50 C417.27,483.71 415.61,485.14 409.00,489.09 C403.74,492.23 403.03,492.37 393.00,492.44 L 382.50 492.50 L 373.59 487.50 C368.68,484.75 362.28,480.32 359.35,477.67 C354.16,472.94 353.96,472.86 350.48,474.01 L 346.91 475.18 L 351.10 479.84 C353.41,482.40 356.01,485.11 356.90,485.85 C358.30,487.04 358.19,487.12 356.00,486.53 C354.62,486.15 349.79,484.10 345.25,481.97 C337.38,478.27 336.82,478.15 333.23,479.42 C331.17,480.15 327.49,481.08 325.07,481.49 L 320.66 482.23 L 323.08 484.07 C324.41,485.08 329.77,488.15 335.00,490.88 C357.89,502.86 379.80,506.39 403.50,501.92 ZM 317.06 475.02 C358.09,467.24 406.02,442.22 446.91,407.23 C463.03,393.44 470.63,386.32 469.96,385.64 C469.67,385.34 463.37,389.15 455.96,394.12 C427.61,413.11 403.53,426.28 378.00,436.76 C354.28,446.50 336.33,451.26 312.62,454.10 C303.00,455.26 300.58,455.21 291.62,453.70 C278.52,451.48 270.81,447.76 264.08,440.40 C261.29,437.34 259.00,434.43 259.00,433.92 C259.00,433.41 258.55,433.00 258.00,433.00 C257.38,433.00 257.12,436.54 257.32,442.25 C257.85,457.67 263.56,467.22 275.81,473.15 C278.26,474.34 281.67,475.64 283.38,476.05 C289.62,477.54 306.49,477.02 317.06,475.02 ZM 554.03 462.97 C558.69,462.40 564.76,461.29 567.52,460.51 L 572.55 459.08 L 573.69 451.79 C574.32,447.78 574.74,444.40 574.61,444.28 C574.48,444.15 572.16,444.88 569.44,445.91 C548.06,453.95 528.88,447.99 526.56,432.58 C525.42,424.92 529.29,414.45 535.09,409.58 C542.10,403.68 545.61,402.58 557.50,402.58 C566.50,402.58 569.49,402.97 573.94,404.76 C576.93,405.97 579.51,406.82 579.67,406.67 C579.82,406.51 580.58,403.40 581.34,399.76 L 582.73 393.13 L 580.11 392.11 C565.74,386.51 546.82,387.04 533.50,393.41 C523.50,398.19 518.73,402.74 514.28,411.75 C510.60,419.20 510.50,419.68 510.50,430.45 C510.50,440.53 510.74,441.95 513.20,446.62 C518.45,456.58 527.61,461.62 544.53,463.86 C545.09,463.94 549.37,463.54 554.03,462.97 ZM 637.20 461.94 C648.12,459.74 647.68,460.24 649.51,448.30 L 650.16 444.10 L 644.79 445.98 C637.11,448.68 626.62,450.32 621.71,449.58 C603.72,446.89 596.68,432.62 605.08,415.91 C609.26,407.59 619.99,402.00 631.81,402.00 C637.60,402.00 647.67,404.09 653.12,406.42 C655.10,407.27 655.78,405.73 656.64,398.42 L 657.27 393.01 L 653.76 391.55 C647.45,388.91 633.20,387.64 623.87,388.90 C614.05,390.22 603.40,394.84 597.12,400.51 C590.72,406.30 585.96,416.86 585.28,426.79 C584.24,441.85 589.05,452.08 599.85,457.84 C603.21,459.63 607.88,461.48 610.23,461.94 C616.46,463.17 631.08,463.16 637.20,461.94 ZM 835.00 461.48 C838.58,460.66 843.14,459.27 845.14,458.39 C849.20,456.61 849.53,455.58 852.54,435.27 C853.34,429.90 854.25,424.26 854.57,422.75 L 855.16 420.00 L 838.65 420.00 L 822.14 420.00 L 820.74 426.25 L 819.34 432.50 L 822.92 433.31 C824.89,433.75 827.74,433.87 829.25,433.58 C830.76,433.29 833.31,433.31 834.90,433.63 C837.62,434.17 837.74,434.41 836.90,437.35 C836.41,439.07 836.00,441.92 836.00,443.67 C836.00,446.45 835.53,447.00 832.25,448.11 C827.29,449.78 815.47,449.79 810.66,448.12 C801.18,444.83 795.81,435.26 797.99,425.54 C800.13,415.98 805.26,409.38 814.00,404.92 C822.22,400.74 840.92,401.45 852.07,406.38 C853.35,406.95 853.87,405.84 854.88,400.32 C856.01,394.24 855.96,393.44 854.43,392.33 C848.88,388.27 822.04,387.07 812.00,390.43 C802.46,393.63 797.52,396.67 791.76,402.89 C784.29,410.96 781.74,417.55 781.24,430.00 C780.88,439.14 780.99,439.75 784.18,446.00 C790.20,457.79 800.47,462.85 818.50,462.93 C824.00,462.95 831.42,462.30 835.00,461.48 ZM 976.54 461.45 C988.72,458.29 995.21,451.11 995.81,440.11 C996.12,434.45 995.83,433.00 993.80,430.00 C990.53,425.18 984.81,422.29 971.69,418.84 C959.23,415.56 956.00,413.92 956.00,410.91 C956.00,405.53 960.38,402.49 969.56,401.50 C975.96,400.81 987.83,402.82 992.94,405.47 L 995.81 406.95 L 996.96 401.73 C997.59,398.85 998.28,395.68 998.48,394.67 C999.00,392.13 994.31,390.34 983.29,388.88 C961.52,385.98 943.60,392.96 940.06,405.72 C936.10,419.98 943.41,427.42 966.33,432.45 C971.77,433.65 975.08,435.00 977.18,436.87 C980.16,439.53 980.18,439.63 978.70,443.16 C977.53,445.98 976.21,447.14 972.60,448.52 C964.98,451.43 948.99,449.65 936.81,444.54 C935.10,443.82 934.15,446.01 932.40,454.73 C931.78,457.85 931.79,457.85 938.64,459.85 C948.68,462.77 948.59,462.76 960.04,462.88 C966.68,462.96 972.79,462.43 976.54,461.45 ZM 496.87 428.75 C499.78,410.46 502.41,394.02 502.70,392.21 L 503.24 388.92 L 494.88 389.21 L 486.51 389.50 L 485.70 395.00 C485.25,398.02 482.66,413.95 479.94,430.40 C477.22,446.84 475.00,460.68 475.00,461.15 C475.00,461.62 478.73,462.00 483.29,462.00 L 491.57 462.00 L 496.87 428.75 ZM 681.90 429.25 C684.82,411.24 687.45,395.04 687.74,393.25 L 688.26 390.00 L 680.15 390.00 C672.56,390.00 672.00,390.14 671.52,392.25 C670.92,394.84 666.51,421.34 665.07,431.00 C664.54,434.58 663.18,442.82 662.05,449.32 C660.92,455.82 660.00,461.33 660.00,461.57 C660.00,461.80 663.73,462.00 668.30,462.00 L 676.59 462.00 L 681.90 429.25 ZM 710.02 456.42 C710.65,453.36 711.57,448.29 712.06,445.17 C716.01,419.89 716.90,414.76 717.42,414.25 C718.15,413.52 717.16,412.09 727.67,429.00 C732.63,436.98 739.30,447.66 742.51,452.75 L 748.33 462.00 L 755.62 462.00 L 762.91 462.00 L 763.49 458.75 C765.38,448.22 774.82,390.49 774.68,390.37 C774.58,390.29 771.05,390.05 766.84,389.84 L 759.17 389.47 L 757.59 397.98 C756.73,402.67 755.01,413.14 753.78,421.25 C752.55,429.36 751.28,436.00 750.96,436.00 C750.39,436.00 731.66,407.08 724.92,395.78 L 721.50 390.06 L 713.25 390.03 C708.71,390.01 705.00,390.35 705.00,390.79 C705.00,391.22 704.15,396.50 703.10,402.54 C702.06,408.57 700.62,416.88 699.91,421.00 C699.20,425.12 698.56,428.73 698.51,429.00 C698.45,429.27 698.04,432.20 697.61,435.50 C697.18,438.80 695.96,445.71 694.91,450.86 C693.86,456.01 693.00,460.62 693.00,461.11 C693.00,461.60 696.57,462.00 700.93,462.00 L 708.86 462.00 L 710.02 456.42 ZM 921.33 461.25 C921.57,460.84 922.09,457.69 922.48,454.25 L 923.20 448.00 L 902.60 448.00 C879.21,448.00 881.24,449.01 883.10,438.35 L 884.20 432.04 L 902.84 431.77 L 921.49 431.50 L 922.60 425.25 L 923.72 419.00 L 905.26 419.00 L 886.80 419.00 L 887.47 412.75 C888.63,402.00 886.37,403.00 909.51,403.00 C920.71,403.00 930.07,402.66 930.31,402.25 C930.54,401.84 931.04,398.68 931.42,395.23 L 932.10 388.97 L 903.31 389.23 L 874.52 389.50 L 873.68 395.00 C873.22,398.02 870.63,414.07 867.92,430.67 C865.21,447.26 863.00,461.09 863.00,461.42 C863.00,462.29 920.81,462.12 921.33,461.25 ZM 333.28 439.38 C385.81,429.24 451.87,390.20 494.44,344.17 L 500.30 337.84 L 508.29 338.14 C515.49,338.41 516.37,338.25 517.04,336.47 C517.46,335.39 522.33,330.06 527.87,324.63 C535.64,317.04 538.36,314.94 539.73,315.50 C544.06,317.28 545.03,317.12 547.97,314.19 C551.39,310.76 551.65,309.17 549.47,304.95 C548.14,302.37 547.40,302.00 543.60,302.00 C538.62,302.00 536.95,303.45 536.08,308.51 C535.63,311.14 532.91,314.53 524.10,323.45 L 512.70 335.00 L 505.10 335.05 L 497.50 335.10 L 493.00 340.60 C483.91,351.73 480.40,354.82 464.00,366.10 C436.14,385.28 403.63,400.58 369.89,410.39 C345.59,417.46 317.17,421.24 304.19,419.11 C289.28,416.68 283.43,414.29 276.31,407.72 C270.62,402.47 268.82,398.96 268.02,391.50 L 267.38 385.50 L 265.50 391.50 C264.25,395.51 263.60,400.65 263.56,407.00 C263.51,415.45 263.81,417.13 266.30,422.20 C275.55,441.04 296.67,446.46 333.28,439.38 ZM 336.87 407.43 C378.15,401.32 425.57,381.29 459.44,355.66 C464.35,351.94 469.64,348.15 471.19,347.23 C472.73,346.32 474.00,345.20 474.00,344.74 C474.00,342.75 469.71,335.98 464.52,329.78 C453.84,317.02 432.29,303.42 414.50,298.22 C377.23,287.32 336.17,298.23 308.61,326.38 C298.09,337.11 298.39,336.76 293.63,344.70 C284.03,360.72 278.99,375.88 279.34,387.70 C279.59,396.33 281.16,398.94 288.69,403.19 C298.79,408.90 316.44,410.45 336.87,407.43 ZM 540.81 356.96 C543.43,354.53 543.76,348.90 541.43,346.57 C538.11,343.25 530.00,345.68 530.00,350.00 C530.00,351.49 528.04,351.76 512.84,352.30 C489.10,353.16 488.11,355.00 511.39,355.00 C527.67,355.00 529.40,355.17 531.73,357.00 C534.97,359.55 538.04,359.54 540.81,356.96 ZM 482.68 340.75 C485.90,338.56 485.99,338.32 485.99,331.34 L 486.00 324.18 L 493.65 316.57 C500.80,309.47 501.53,309.01 504.63,309.59 C507.43,310.11 508.41,309.74 510.97,307.18 C514.69,303.47 514.88,299.79 511.55,296.45 C508.52,293.43 505.13,293.33 501.52,296.16 C499.16,298.02 498.85,298.85 499.29,302.12 C499.78,305.79 499.52,306.19 491.91,313.46 C487.57,317.61 483.54,321.00 482.94,321.00 C482.35,321.00 479.20,318.65 475.93,315.78 C471.00,311.43 470.00,310.01 470.00,307.33 C470.00,301.55 463.67,299.09 459.31,303.17 C454.33,307.86 458.55,315.70 465.41,314.48 C468.06,314.02 469.33,314.66 474.33,318.97 C477.54,321.74 480.58,324.00 481.08,324.00 C481.59,324.00 482.00,327.09 482.00,330.87 C482.00,336.30 481.57,338.28 479.93,340.37 C477.39,343.59 478.31,343.72 482.68,340.75 ZM 435.86 450.27 C434.06,449.86 434.25,447.67 436.52,442.50 C437.24,440.85 438.14,437.70 438.50,435.50 C439.61,428.88 439.94,428.27 442.27,428.39 C445.61,428.56 445.53,431.68 441.93,441.14 C438.37,450.49 438.16,450.81 435.86,450.27 ZM 540.57 311.43 C539.71,310.56 539.00,309.47 539.00,309.00 C539.00,307.68 541.98,305.00 543.45,305.00 C545.99,305.00 547.39,307.85 546.17,310.53 C544.88,313.37 542.84,313.69 540.57,311.43 ZM 329.75 394.35 C327.07,393.88 327.00,393.69 327.01,387.18 C327.02,379.49 328.40,369.85 330.59,362.15 L 332.11 356.80 L 335.81 357.44 C337.84,357.79 341.86,358.54 344.75,359.11 L 350.00 360.14 L 350.02 369.82 C350.03,375.14 350.49,382.60 351.04,386.40 C351.59,390.19 351.81,393.52 351.55,393.79 C350.86,394.47 333.09,394.93 329.75,394.35 ZM 311.00 391.04 C307.98,390.08 303.36,388.24 300.75,386.95 C296.88,385.03 296.00,384.11 296.00,381.96 C296.00,376.78 299.99,363.83 304.47,354.51 L 309.02 345.04 L 314.26 348.38 C317.14,350.22 320.55,352.05 321.82,352.45 C323.10,352.85 323.94,353.70 323.70,354.34 C322.09,358.52 318.83,374.10 317.76,382.64 L 316.50 392.78 L 311.00 391.04 ZM 356.68 391.92 C357.28,391.32 363.72,389.11 371.00,387.00 C378.28,384.89 384.56,382.79 384.97,382.33 C385.38,381.88 385.13,376.55 384.43,370.50 C383.72,364.45 383.45,359.22 383.82,358.88 C384.19,358.54 386.61,357.99 389.19,357.66 L 393.89 357.05 L 394.52 361.78 C394.87,364.37 395.57,367.85 396.06,369.50 C396.55,371.15 397.23,374.79 397.56,377.59 C398.15,382.49 398.06,382.73 395.33,383.77 C384.14,388.06 364.17,393.00 358.05,393.00 C356.29,393.00 355.91,392.69 356.68,391.92 ZM 431.06 364.75 C428.83,359.20 425.05,348.63 425.27,348.55 C425.39,348.50 427.59,347.49 430.14,346.29 L 434.79 344.13 L 438.06 351.81 C439.86,356.04 441.98,360.03 442.77,360.68 C443.95,361.66 443.31,362.32 439.13,364.43 C432.94,367.57 432.20,367.60 431.06,364.75 ZM 340.75 349.77 C337.52,349.10 336.00,348.28 336.00,347.22 C336.00,344.14 343.20,331.14 348.38,324.88 C354.71,317.21 366.64,306.47 370.41,305.03 C371.91,304.47 374.60,304.00 376.39,304.00 L 379.64 304.00 L 382.81 314.25 C386.57,326.42 392.28,348.08 391.82,348.46 C391.64,348.61 389.40,348.96 386.83,349.24 L 382.15 349.74 L 381.61 345.12 C381.31,342.58 380.80,337.12 380.46,333.00 C379.79,324.61 377.21,307.15 376.48,305.96 C376.21,305.54 374.31,305.70 372.25,306.33 C361.97,309.47 353.97,324.80 351.44,346.25 C350.81,351.59 350.30,351.76 340.75,349.77 ZM 319.75 342.94 C316.59,341.30 314.00,339.57 314.00,339.08 C314.00,337.53 328.42,324.04 334.56,319.86 C339.90,316.22 351.18,310.00 352.44,310.00 C352.71,310.00 352.68,310.67 352.36,311.50 C352.05,312.33 351.25,313.00 350.59,313.00 C349.93,313.00 347.87,314.58 346.00,316.50 C344.13,318.42 343.03,320.00 343.55,320.00 C344.07,320.01 343.26,321.02 341.74,322.25 C340.22,323.49 338.19,325.87 337.24,327.55 C331.10,338.32 326.43,345.97 326.00,345.94 C325.73,345.92 322.91,344.57 319.75,342.94 ZM 418.61 332.47 C416.47,327.78 415.02,323.65 415.39,323.27 C416.14,322.53 429.00,335.53 429.00,337.03 C429.00,337.77 423.91,341.03 422.80,340.99 C422.63,340.99 420.75,337.15 418.61,332.47 ZM 451.23 334.81 C451.85,332.96 453.69,332.75 454.35,334.46 C454.76,335.54 454.32,336.00 452.89,336.00 C451.75,336.00 451.01,335.47 451.23,334.81 ZM 430.50 326.54 C426.65,322.60 422.28,318.50 420.80,317.44 L 418.10 315.50 L 420.38 312.89 L 422.66 310.28 L 432.08 315.70 C437.26,318.68 442.77,322.33 444.33,323.81 L 447.16 326.50 L 442.95 330.25 C440.64,332.31 438.46,333.93 438.12,333.85 C437.78,333.77 434.35,330.48 430.50,326.54 ZM 407.42 309.94 C404.63,308.33 399.01,306.14 394.92,305.09 C385.87,302.75 387.36,302.59 400.50,304.47 C410.79,305.94 417.00,307.63 417.00,308.94 C417.00,309.74 413.63,313.04 412.92,312.94 C412.69,312.91 410.22,311.56 407.42,309.94 ZM 533.31 353.36 C531.84,349.52 537.15,346.70 539.33,350.17 C540.10,351.38 540.02,352.27 539.07,353.42 C537.36,355.48 534.11,355.45 533.31,353.36 ZM 461.01 309.51 C459.26,307.40 460.51,305.00 463.36,305.00 C466.15,305.00 467.57,307.60 465.89,309.63 C464.41,311.41 462.55,311.37 461.01,309.51 ZM 503.45 303.94 C501.12,301.37 502.47,298.65 506.28,298.19 C509.80,297.77 511.50,300.84 509.40,303.85 C507.50,306.55 505.83,306.57 503.45,303.94 Z" fill="rgb(252,253,252)"/>
</g>
</svg>